{"title":"2012.Doomsday.[2008].DvdRip.XviD-Kna","uid":6709634,"size":1349584896,"categoryP":"video","categoryS":"movies","magnet":"?xt=urn:btih:a991f96b49f235d0e42bd41c9aa41f3a2bd4705c&amp;dn=2012.Doomsday.%5B2008%5D.DvdRip.XviD-Kna&amp;tr=udp%3A%2F%2Ftracker.openbittorrent.com%3A80&amp;tr=udp%3A%2F%2Fopen.demonii.com%3A1337&amp;tr=udp%3A%2F%2Ftracker.coppersurfer.tk%3A6969&amp;tr=udp%3A%2F%2Fexodus.desync.com%3A6969","seeders":0,"leechers":0,"uploader":"Jon.Pson","files":-1,"time":1317306137,"description":"On December 21, 2012 four strangers on a journey of faith are drawn to an ancient temple in the heart of Mexico. For the Mayans it is the last recorded day. For NASA scientists it is a cataclysmic polar shift. For the rest of us, it is Doomsday.\n\n\n\nGeneral\nComplete name                    : 2012.Doomsday.[2008].DvdRip.XviD-KnÃƒÂ£\\2012.Doomsday.[2008].DvdRip.XviD-KnÃƒÂ£.avi\nFormat                           : AVI\nFormat/Info                      : Audio Video Interleave\nFile size                        : 1.26 GiB\nDuration                         : 1h 25mn\nOverall bit rate                 : 2 110 Kbps\nWriting application              : VirtualDubMod 1.5.4.1 (build 2178/release)\nWriting library                  : VirtualDubMod build 2178/release\n\nVideo\nID                               : 0\nFormat                           : MPEG-4 Visual\nFormat profile                   : Advanced Simple@L5\nFormat settings, BVOP            : No\nFormat settings, QPel            : No\nFormat settings, GMC             : No warppoints\nFormat settings, Matrix          : Custom\nCodec ID                         : XVID\nCodec ID/Hint                    : XviD\nDuration                         : 1h 25mn\nBit rate                         : 1 911 Kbps\nWidth                            : 720 pixels\nHeight                           : 304 pixels\nDisplay aspect ratio             : 2.35:1\nFrame rate                       : 25.000 fps\nColor space                      : YUV\nChroma subsampling               : 4:2:0\nBit depth                        : 8 bits\nScan type                        : Progressive\nCompression mode                 : Lossy\nBits/(Pixel*Frame)               : 0.349\nStream size                      : 1.14 GiB (91%)\nWriting library                  : XviD 1.2.1 (UTC 2008-12-04)\n\nAudio\nID                               : 1\nFormat                           : AC-3\nFormat/Info                      : Audio Coding 3\nMode extension                   : CM (complete main)\nCodec ID                         : 2000\nDuration                         : 1h 25mn\nBit rate mode                    : Constant\nBit rate                         : 192 Kbps\nChannel(s)                       : 2 channels\nChannel positions                : Front: L R\nSampling rate                    : 48.0 KHz\nBit depth                        : 16 bits\nCompression mode                 : Lossy\nStream size                      : 117 MiB (9%)\nAlignment                        : Split accross interleaves\nInterleave, duration             : 96 ms (2.40 video frames)\nInterleave, preload duration     : 96 ms\nLanguage                         : English\n\n","torrent":{"xt":"urn:btih:a991f96b49f235d0e42bd41c9aa41f3a2bd4705c","amp;dn":"2012.Doomsday.%5B2008%5D.DvdRip.XviD-Kna","amp;tr":["udp%3A%2F%2Ftracker.openbittorrent.com%3A80","udp%3A%2F%2Fopen.demonii.com%3A1337","udp%3A%2F%2Ftracker.coppersurfer.tk%3A6969","udp%3A%2F%2Fexodus.desync.com%3A6969"],"infoHash":"a991f96b49f235d0e42bd41c9aa41f3a2bd4705c","infoHashBuffer":{"type":"Buffer","data":[169,145,249,107,73,242,53,208,228,43,212,28,154,164,31,58,43,212,112,92]},"announce":[],"urlList":[]}}